#!OML:ASF H:\Terrain\Patient Classification 1\Terrain2\Thursday\justin.ASF
:FULLY-SPECIFIED
:DEGREES
2856
root 17.918 23.7037 10.9963 901.166 29.4992 -537.314
lowerback 8.90128 -0.0492402 1.54185
upperback 3.38287 0.449768 3.59915
thorax -1.50464 0.346169 2.80688
lowerneck -11.785 -3.12638 -8.78835
upperneck 40.9088 2.28013 0.385829
head 16.8565 0.988609 2.55263
rclavicle -1.19271e-014 8.50798e-014
rhumerus -28.1325 -13.3958 -73.171
rradius 30.3861
rwrist -11.1989
rhand -19.7024 15.164
rfingers 7.12502
rthumb 6.62714 -14.7123
lclavicle -1.19271e-014 8.50798e-014
lhumerus -37.9976 1.87928 83.6222
lradius 45.8675
lwrist 7.38897
lhand -18.6726 19.3027
lfingers 7.12502
lthumb 7.62119 49.1454
rfemur -17.4997 -19.1224 21.2197
rtibia 50.7921
rfoot -20.3643 -15.842
rtoes 7.91376
lfemur -15.1652 7.49396 -21.2811
ltibia 36.2963
lfoot -16.8672 -2.61095
ltoes 2.5816
2857
root 17.9206 23.7015 10.9834 900.992 28.8549 -537.693
lowerback 8.91638 -0.00299117 1.19547
upperback 3.33648 0.475437 3.55095
thorax -1.56366 0.354405 2.94958
lowerneck -11.7369 -3.07866 -8.91814
upperneck 40.8786 2.4442 0.350353
head 16.8223 1.04591 2.58916
rclavicle -1.19271e-015 3.18055e-015
rhumerus -28.4723 -14.7058 -72.4453
rradius 29.0095
rwrist -8.83655
rhand -19.3762 16.5189
rfingers 7.12502
rthumb 6.94196 -13.3473
lclavicle -1.19271e-015 3.18055e-015
lhumerus -37.7479 1.83117 83.5872
lradius 46.1483
lwrist 7.26959
lhand -17.1068 19.486
lfingers 7.12502
lthumb 9.13232 49.2683
rfemur -18.0679 -18.859 20.774
rtibia 51.8575
rfoot -19.7316 -16.2657
rtoes 8.37858
lfemur -15.118 7.3541 -21.6809
ltibia 36.0982
lfoot -16.4075 -2.75481
ltoes -1.39205
2858
root 17.9279 23.704 10.9741 900.737 28.0944 -537.919
lowerback 9.0621 -0.111835 0.743711
upperback 3.38839 0.308419 3.67611
thorax -1.58474 0.272605 3.35289
lowerneck -11.7477 -2.97102 -9.40272
upperneck 40.8263 2.69808 0.533404
head 16.7804 1.10676 2.79887
rclavicle -2.14687e-014 3.97569e-015
rhumerus -28.5008 -14.8406 -72.1913
rradius 28.0809
rwrist -8.31845
rhand -19.7242 16.1706
rfingers 7.12502
rthumb 6.60607 -13.7063
lclavicle -2.14687e-014 3.97569e-015
lhumerus -37.4598 2.3972 83.5413
lradius 46.4508
lwrist 6.78868
lhand -16.5902 19.5137
lfingers 7.12502
lthumb 9.63079 49.2736
rfemur -18.3639 -18.714 20.445
rtibia 52.8401
rfoot -19.2339 -16.6718
rtoes 8.83742
lfemur -14.9224 7.08378 -21.8717
ltibia 35.9597
lfoot -15.9477 -3.1322
ltoes -4.00818
2859
root 17.9343 23.7123 10.967 900.588 27.2306 -537.894
lowerback 9.20677 -0.179826 0.774709
upperback 3.47083 0.230775 3.62999
thorax -1.57474 0.237777 3.29562
lowerneck -11.7858 -2.97188 -9.36741
upperneck 40.8459 2.68731 0.616827
head 16.7978 1.12512 2.83202
rclavicle -2.70347e-014 2.8625e-014
rhumerus -28.583 -15.3884 -72.1798
rradius 27.246
rwrist -8.38198
rhand -20.4234 14.9019
rfingers 7.12502
rthumb 5.93107 -14.9951
lclavicle -2.70347e-014 2.8625e-014
lhumerus -37.0374 2.30443 83.3706
lradius 46.7425
lwrist 7.02514
lhand -17.8782 18.9369
lfingers 7.12502
lthumb 8.38785 48.7503
rfemur -18.5832 -18.4168 20.3816
rtibia 53.747
rfoot -18.919 -17.0174
rtoes 10.5068
lfemur -14.7261 6.71728 -21.8072
ltibia 35.8229
lfoot -15.878 -4.08447
ltoes 1.97787
2860
root 17.9407 23.7178 10.9599 900.597 26.3987 -537.785
lowerback 9.2515 -0.105644 1.10727
upperback 3.48604 0.351471 3.41779
thorax -1.58782 0.299485 2.87372
lowerneck -11.8221 -3.11034 -8.84213
upperneck 40.9735 2.42917 0.523763
head 16.8915 1.09975 2.66517
rclavicle -5.76476e-015 5.24792e-014
rhumerus -28.952 -17.1002 -71.9131
rradius 26.2428
rwrist -7.38709
rhand -21.0895 13.8741
rfingers 7.12502
rthumb 5.2879 -16.0399
lclavicle -5.76476e-015 5.24792e-014
lhumerus -36.5621 1.54888 83.1738
lradius 46.8118
lwrist 7.71701
lhand -20.7876 16.0664
lfingers 7.12502
lthumb 5.5794 45.9729
rfemur -18.9439 -18.0082 20.462
rtibia 54.5969
rfoot -18.5837 -17.3221
rtoes 10.9888
lfemur -14.6211 6.3404 -21.7001
ltibia 35.6295
lfoot -15.8447 -4.8146
ltoes 8.11772
2861
root 17.9521 23.716 10.9481 900.525 25.5918 -537.973
lowerback 9.24715 -0.0525155 1.00383
upperback 3.44015 0.401519 3.27623
thorax -1.63471 0.320817 2.77945
lowerneck -11.8041 -3.23189 -8.63315
upperneck 41.0688 2.28228 0.436493
head 16.9512 1.07502 2.57289
rclavicle -4.45278e-014 -1.03368e-014
rhumerus -29.3752 -18.8482 -71.384
rradius 25.2324
rwrist -5.90155
rhand -20.8627 13.9388
rfingers 7.12502
rthumb 5.50688 -15.9697
lclavicle -4.45278e-014 -1.03368e-014
lhumerus -36.2447 1.31288 83.0042
lradius 46.7547
lwrist 7.59323
lhand -20.1462 16.9163
lfingers 7.12502
lthumb 6.19866 46.8056
rfemur -19.3337 -17.7202 20.2342
rtibia 55.4123
rfoot -18.518 -17.4047
rtoes 10.9474
lfemur -14.4672 5.9148 -21.9051
ltibia 35.383
lfoot -15.8982 -5.0014
ltoes 7.51329
2862
root 17.9632 23.7184 10.9345 900.3 24.7963 -538.382
lowerback 9.34373 0.0645699 0.718822
upperback 3.44551 0.522121 3.08667
thorax -1.68764 0.377294 2.73032
lowerneck -11.8156 -3.36456 -8.38607
upperneck 40.9848 2.07955 0.270887
head 16.9215 1.01638 2.41926
rclavicle 2.08724e-014 -3.81667e-014
rhumerus -29.9146 -20.5509 -70.7214
rradius 24.3024
rwrist -4.47033
rhand -20.1077 15.0152
rfingers 7.12502
rthumb 6.23582 -14.873
lclavicle 2.08724e-014 -3.81667e-014
lhumerus -35.8312 1.23937 82.7557
lradius 46.9369
lwrist 7.36429
lhand -14.7307 24.5608
lfingers 7.12502
lthumb 11.4245 54.2296
rfemur -19.6287 -17.3419 19.6977
rtibia 56.1698
rfoot -19.0058 -17.2422
rtoes 12.9455
lfemur -14.224 5.54611 -22.3406
ltibia 35.052
lfoot -16.0112 -4.96549
ltoes 3.33406
2863
root 17.975 23.7267 10.926 900.173 23.9267 -538.493
lowerback 9.46153 0.291544 0.91539
upperback 3.59465 0.835771 2.75755
thorax -1.60453 0.537051 2.24379
lowerneck -12.2085 -3.56751 -7.6733
upperneck 40.9414 1.60413 0.162205
head 17.012 0.908381 2.16526
rclavicle 2.54444e-014 -3.33958e-014
rhumerus -30.4956 -22.7824 -70.2318
rradius 23.5692
rwrist -3.28769
rhand -20.1687 15.1694
rfingers 7.12502
rthumb 6.17694 -14.7205
lclavicle 2.54444e-014 -3.33958e-014
lhumerus -34.9967 0.630934 82.3954
lradius 47.2596
lwrist 7.67242
lhand -15.5395 21.3398
lfingers 7.12502
lthumb 10.6444 51.0502
rfemur -19.7753 -16.684 19.4414
rtibia 56.8119
rfoot -19.9044 -16.9776
rtoes 16.2652
lfemur -14.0073 5.24555 -22.459
ltibia 34.6472
lfoot -15.8237 -5.18548
ltoes 0.440274
2864
root 17.992 23.7316 10.9184 900.166 23.0346 -538.386
lowerback 9.42627 0.0341362 0.659236
upperback 3.66871 0.489604 2.9782
thorax -1.50007 0.368207 2.65494
lowerneck -12.3828 -3.32925 -7.86375
upperneck 40.9269 2.15097 -0.0282364
head 17.0309 1.07796 2.21033
rclavicle 2.54444e-014 -2.62396e-014
rhumerus -30.3507 -22.7744 -70.2413
rradius 22.8847
rwrist -3.19275
rhand -21.1227 14.3839
rfingers 7.12502
rthumb 5.25584 -15.5309
lclavicle 2.54444e-014 -2.62396e-014
lhumerus -34.8119 1.72309 82.2084
lradius 47.4503
lwrist 7.51961
lhand -18.0384 18.7839
lfingers 7.12502
lthumb 8.23326 48.6035
rfemur -19.8874 -16.0005 19.4672
rtibia 57.3165
rfoot -20.8104 -16.6686
rtoes 19.6776
lfemur -13.8116 4.91463 -22.3367
ltibia 34.2535
lfoot -15.841 -5.44622
ltoes -2.99917
